<svg xmlns="http://www.w3.org/2000/svg" width="980" height="360" viewBox="0 0 980 360"><rect width="100%" height="100%" fill="#ffffff"/><text x="490" y="32" text-anchor="middle" font-size="22" font-weight="700" fill="#111827">消融趋势图</text><line x1="180" y1="300.0" x2="860" y2="300.0" stroke="#eef2f7"/><text x="162" y="304.0" text-anchor="end" font-size="12" fill="#6b7280">0</text><line x1="180" y1="256.0" x2="860" y2="256.0" stroke="#eef2f7"/><text x="162" y="260.0" text-anchor="end" font-size="12" fill="#6b7280">20</text><line x1="180" y1="212.0" x2="860" y2="212.0" stroke="#eef2f7"/><text x="162" y="216.0" text-anchor="end" font-size="12" fill="#6b7280">40</text><line x1="180" y1="168.0" x2="860" y2="168.0" stroke="#eef2f7"/><text x="162" y="172.0" text-anchor="end" font-size="12" fill="#6b7280">60</text><line x1="180" y1="124.0" x2="860" y2="124.0" stroke="#eef2f7"/><text x="162" y="128.0" text-anchor="end" font-size="12" fill="#6b7280">80</text><line x1="180" y1="80.0" x2="860" y2="80.0" stroke="#eef2f7"/><text x="162" y="84.0" text-anchor="end" font-size="12" fill="#6b7280">100</text><rect x="200" y="100.68" width="110" height="199.32" rx="10" fill="#2563eb"/><text x="255.0" y="92.68" text-anchor="middle" font-size="13" font-weight="600" fill="#111827">90.6</text><text x="255.0" y="330" text-anchor="middle" font-size="12" fill="#475569">完整 完整</text><rect x="360" y="109.03999999999999" width="110" height="190.96" rx="10" fill="#60a5fa"/><text x="415.0" y="101.03999999999999" text-anchor="middle" font-size="13" font-weight="600" fill="#111827">86.8</text><text x="415.0" y="330" text-anchor="middle" font-size="12" fill="#475569">- 无术语校正</text><rect x="520" y="105.96000000000001" width="110" height="194.04" rx="10" fill="#93c5fd"/><text x="575.0" y="97.96000000000001" text-anchor="middle" font-size="13" font-weight="600" fill="#111827">88.2</text><text x="575.0" y="330" text-anchor="middle" font-size="12" fill="#475569">- 无结论抑制</text><rect x="680" y="107.5" width="110" height="192.5" rx="10" fill="#c4b5fd"/><text x="735.0" y="99.5" text-anchor="middle" font-size="13" font-weight="600" fill="#111827">87.5</text><text x="735.0" y="330" text-anchor="middle" font-size="12" fill="#475569">- 无图表布局建议</text></svg>