<svg xmlns="http://www.w3.org/2000/svg" width="980" height="360" viewBox="0 0 980 360"><rect width="100%" height="100%" fill="#ffffff"/><text x="490" y="32" text-anchor="middle" font-size="22" font-weight="700" fill="#111827">消融趋势图</text><line x1="150" y1="300.0" x2="900" y2="300.0" stroke="#eef2f7"/><text x="138" y="304.0" text-anchor="end" font-size="12" fill="#6b7280">0</text><line x1="150" y1="254.0" x2="900" y2="254.0" stroke="#eef2f7"/><text x="138" y="258.0" text-anchor="end" font-size="12" fill="#6b7280">20</text><line x1="150" y1="208.0" x2="900" y2="208.0" stroke="#eef2f7"/><text x="138" y="212.0" text-anchor="end" font-size="12" fill="#6b7280">40</text><line x1="150" y1="162.0" x2="900" y2="162.0" stroke="#eef2f7"/><text x="138" y="166.0" text-anchor="end" font-size="12" fill="#6b7280">60</text><line x1="150" y1="116.0" x2="900" y2="116.0" stroke="#eef2f7"/><text x="138" y="120.0" text-anchor="end" font-size="12" fill="#6b7280">80</text><line x1="150" y1="70.0" x2="900" y2="70.0" stroke="#eef2f7"/><text x="138" y="74.0" text-anchor="end" font-size="12" fill="#6b7280">100</text><line x1="150" y1="300" x2="900" y2="300" stroke="#94a3b8"/><rect x="205.0" y="93.91999999999999" width="32" height="206.08" rx="8" fill="#7dd3fc"/><text x="221.0" y="85.91999999999999" text-anchor="middle" font-size="12" fill="#111827">89.6</text><rect x="243.0" y="89.55000000000001" width="32" height="210.45" rx="8" fill="#2563eb"/><text x="259.0" y="81.55000000000001" text-anchor="middle" font-size="12" fill="#111827">91.5</text><text x="225.0" y="326" text-anchor="middle" font-size="12" fill="#475569">完整模型</text><rect x="355.0" y="109.78999999999999" width="32" height="190.21" rx="8" fill="#7dd3fc"/><text x="371.0" y="101.78999999999999" text-anchor="middle" font-size="12" fill="#111827">82.7</text><rect x="393.0" y="101.74000000000001" width="32" height="198.26" rx="8" fill="#2563eb"/><text x="409.0" y="93.74000000000001" text-anchor="middle" font-size="12" fill="#111827">86.2</text><text x="375.0" y="326" text-anchor="middle" font-size="12" fill="#475569">- 对照表</text><rect x="505.0" y="118.53" width="32" height="181.47" rx="8" fill="#7dd3fc"/><text x="521.0" y="110.53" text-anchor="middle" font-size="12" fill="#111827">78.9</text><rect x="543.0" y="114.62" width="32" height="185.38" rx="8" fill="#2563eb"/><text x="559.0" y="106.62" text-anchor="middle" font-size="12" fill="#111827">80.6</text><text x="525.0" y="326" text-anchor="middle" font-size="12" fill="#475569">- 账本</text><rect x="655.0" y="112.32" width="32" height="187.68" rx="8" fill="#7dd3fc"/><text x="671.0" y="104.32" text-anchor="middle" font-size="12" fill="#111827">81.6</text><rect x="693.0" y="95.07" width="32" height="204.93" rx="8" fill="#2563eb"/><text x="709.0" y="87.07" text-anchor="middle" font-size="12" fill="#111827">89.1</text><text x="675.0" y="326" text-anchor="middle" font-size="12" fill="#475569">- 耦合器</text><rect x="805.0" y="116.46000000000001" width="32" height="183.54" rx="8" fill="#7dd3fc"/><text x="821.0" y="108.46000000000001" text-anchor="middle" font-size="12" fill="#111827">79.8</text><rect x="843.0" y="128.88" width="32" height="171.12" rx="8" fill="#2563eb"/><text x="859.0" y="120.88" text-anchor="middle" font-size="12" fill="#111827">74.4</text><text x="825.0" y="326" text-anchor="middle" font-size="12" fill="#475569">- 校准器</text><rect x="670" y="46" width="14" height="14" fill="#7dd3fc" rx="3"/><text x="692" y="58" font-size="13" fill="#111827">ARR</text><rect x="740" y="46" width="14" height="14" fill="#2563eb" rx="3"/><text x="762" y="58" font-size="13" fill="#111827">CCR</text></svg>