<svg xmlns="http://www.w3.org/2000/svg" width="980" height="400" viewBox="0 0 980 400"><rect width="100%" height="100%" fill="#ffffff"/><text x="490" y="32" text-anchor="middle" font-size="22" font-weight="700" fill="#111827">页面级错误分析</text><line x1="330.0" y1="70" x2="330.0" y2="340" stroke="#eef2f7"/><text x="330.0" y="362" text-anchor="middle" font-size="12" fill="#6b7280">0</text><line x1="472.5" y1="70" x2="472.5" y2="340" stroke="#eef2f7"/><text x="472.5" y="362" text-anchor="middle" font-size="12" fill="#6b7280">5</text><line x1="615.0" y1="70" x2="615.0" y2="340" stroke="#eef2f7"/><text x="615.0" y="362" text-anchor="middle" font-size="12" fill="#6b7280">10</text><line x1="757.5" y1="70" x2="757.5" y2="340" stroke="#eef2f7"/><text x="757.5" y="362" text-anchor="middle" font-size="12" fill="#6b7280">15</text><line x1="900.0" y1="70" x2="900.0" y2="340" stroke="#eef2f7"/><text x="900.0" y="362" text-anchor="middle" font-size="12" fill="#6b7280">20</text><text x="318" y="84" text-anchor="end" font-size="13" font-weight="600" fill="#111827">对照定义漂移</text><rect x="330" y="70" width="427.5" height="14" rx="7" fill="#cbd5e1"/><rect x="330" y="88" width="85.5" height="14" rx="7" fill="#2563eb"/><text x="765.5" y="82" font-size="12" fill="#475569">Before 15</text><text x="423.5" y="100" font-size="12" fill="#1d4ed8">After 3</text><text x="318" y="136" text-anchor="end" font-size="13" font-weight="600" fill="#111827">通路标签与机制图不一致</text><rect x="330" y="122" width="541.5" height="14" rx="7" fill="#cbd5e1"/><rect x="330" y="140" width="114.0" height="14" rx="7" fill="#2563eb"/><text x="879.5" y="134" font-size="12" fill="#475569">Before 19</text><text x="452.0" y="152" font-size="12" fill="#1d4ed8">After 4</text><text x="318" y="188" text-anchor="end" font-size="13" font-weight="600" fill="#111827">细胞亚群命名不一致</text><rect x="330" y="174" width="484.5" height="14" rx="7" fill="#cbd5e1"/><rect x="330" y="192" width="142.5" height="14" rx="7" fill="#2563eb"/><text x="822.5" y="186" font-size="12" fill="#475569">Before 17</text><text x="480.5" y="204" font-size="12" fill="#1d4ed8">After 5</text><text x="318" y="240" text-anchor="end" font-size="13" font-weight="600" fill="#111827">图注不足却上升为机制断言</text><rect x="330" y="226" width="399.0" height="14" rx="7" fill="#cbd5e1"/><rect x="330" y="244" width="85.5" height="14" rx="7" fill="#2563eb"/><text x="737.0" y="238" font-size="12" fill="#475569">Before 14</text><text x="423.5" y="256" font-size="12" fill="#1d4ed8">After 3</text><text x="318" y="292" text-anchor="end" font-size="13" font-weight="600" fill="#111827">预后相关性包装为治疗结论</text><rect x="330" y="278" width="313.5" height="14" rx="7" fill="#cbd5e1"/><rect x="330" y="296" width="57.0" height="14" rx="7" fill="#2563eb"/><text x="651.5" y="290" font-size="12" fill="#475569">Before 11</text><text x="395.0" y="308" font-size="12" fill="#1d4ed8">After 2</text><rect x="710" y="48" width="14" height="14" fill="#cbd5e1" rx="3"/><text x="730" y="60" font-size="13" fill="#111827">原始自动稿</text><rect x="830" y="48" width="14" height="14" fill="#2563eb" rx="3"/><text x="850" y="60" font-size="13" fill="#111827">PathwayPatch</text></svg>