<svg xmlns="http://www.w3.org/2000/svg" width="980" height="400" viewBox="0 0 980 400"><rect width="100%" height="100%" fill="#ffffff"/><text x="490" y="32" text-anchor="middle" font-size="22" font-weight="700" fill="#111827">页面级错误分析</text><line x1="280.0" y1="60" x2="280.0" y2="360" stroke="#eef2f7"/><text x="280.0" y="378" text-anchor="middle" font-size="12" fill="#6b7280">0</text><line x1="399.2307692307692" y1="60" x2="399.2307692307692" y2="360" stroke="#eef2f7"/><text x="399.2307692307692" y="378" text-anchor="middle" font-size="12" fill="#6b7280">5</text><line x1="518.4615384615385" y1="60" x2="518.4615384615385" y2="360" stroke="#eef2f7"/><text x="518.4615384615385" y="378" text-anchor="middle" font-size="12" fill="#6b7280">10</text><line x1="637.6923076923076" y1="60" x2="637.6923076923076" y2="360" stroke="#eef2f7"/><text x="637.6923076923076" y="378" text-anchor="middle" font-size="12" fill="#6b7280">15</text><line x1="756.9230769230769" y1="60" x2="756.9230769230769" y2="360" stroke="#eef2f7"/><text x="756.9230769230769" y="378" text-anchor="middle" font-size="12" fill="#6b7280">20</text><line x1="876.1538461538462" y1="60" x2="876.1538461538462" y2="360" stroke="#eef2f7"/><text x="876.1538461538462" y="378" text-anchor="middle" font-size="12" fill="#6b7280">25</text><text x="270" y="88" text-anchor="end" font-size="13" font-weight="600" fill="#111827">机制图与正文主题不符</text><rect x="280" y="70" width="429.2307692307692" height="14" rx="7" fill="#cbd5e1"/><rect x="280" y="88" width="119.23076923076923" height="14" rx="7" fill="#2563eb"/><text x="717.2307692307693" y="82" font-size="12" fill="#475569">Before 18</text><text x="407.2307692307692" y="100" font-size="12" fill="#1d4ed8">After 5</text><text x="270" y="142" text-anchor="end" font-size="13" font-weight="600" fill="#111827">术语混用/缩写错配</text><rect x="280" y="124" width="500.7692307692308" height="14" rx="7" fill="#cbd5e1"/><rect x="280" y="142" width="166.92307692307693" height="14" rx="7" fill="#2563eb"/><text x="788.7692307692307" y="136" font-size="12" fill="#475569">Before 21</text><text x="454.9230769230769" y="154" font-size="12" fill="#1d4ed8">After 7</text><text x="270" y="196" text-anchor="end" font-size="13" font-weight="600" fill="#111827">火山图/热图顺序失衡</text><rect x="280" y="178" width="333.84615384615387" height="14" rx="7" fill="#cbd5e1"/><rect x="280" y="196" width="95.38461538461539" height="14" rx="7" fill="#2563eb"/><text x="621.8461538461538" y="190" font-size="12" fill="#475569">Before 14</text><text x="383.38461538461536" y="208" font-size="12" fill="#1d4ed8">After 4</text><text x="270" y="250" text-anchor="end" font-size="13" font-weight="600" fill="#111827">结论强断言过多</text><rect x="280" y="232" width="381.53846153846155" height="14" rx="7" fill="#cbd5e1"/><rect x="280" y="250" width="71.53846153846153" height="14" rx="7" fill="#2563eb"/><text x="669.5384615384615" y="244" font-size="12" fill="#475569">Before 16</text><text x="359.53846153846155" y="262" font-size="12" fill="#1d4ed8">After 3</text><text x="270" y="304" text-anchor="end" font-size="13" font-weight="600" fill="#111827">临床暗示超出证据范围</text><rect x="280" y="286" width="214.6153846153846" height="14" rx="7" fill="#cbd5e1"/><rect x="280" y="304" width="47.69230769230769" height="14" rx="7" fill="#2563eb"/><text x="502.61538461538464" y="298" font-size="12" fill="#475569">Before 9</text><text x="335.6923076923077" y="316" font-size="12" fill="#1d4ed8">After 2</text><rect x="700" y="58" width="14" height="14" fill="#cbd5e1" rx="3"/><text x="720" y="70" font-size="13" fill="#111827">Before</text><rect x="790" y="58" width="14" height="14" fill="#2563eb" rx="3"/><text x="810" y="70" font-size="13" fill="#111827">After</text></svg>