<svg xmlns="http://www.w3.org/2000/svg" width="980" height="360" viewBox="0 0 980 360"><rect width="100%" height="100%" fill="#ffffff"/><text x="490" y="32" text-anchor="middle" font-size="22" font-weight="700" fill="#111827">训练与验证损失曲线</text><line x1="90" y1="80" x2="900" y2="80" stroke="#eef2f7"/><line x1="90" y1="130" x2="900" y2="130" stroke="#eef2f7"/><line x1="90" y1="180" x2="900" y2="180" stroke="#eef2f7"/><line x1="90" y1="230" x2="900" y2="230" stroke="#eef2f7"/><line x1="90" y1="280" x2="900" y2="280" stroke="#eef2f7"/><line x1="90" y1="300" x2="900" y2="300" stroke="#94a3b8"/><line x1="90" y1="60" x2="90" y2="300" stroke="#94a3b8"/><text x="100" y="322" text-anchor="middle" font-size="12" fill="#6b7280">E1</text><text x="180" y="322" text-anchor="middle" font-size="12" fill="#6b7280">E2</text><text x="260" y="322" text-anchor="middle" font-size="12" fill="#6b7280">E3</text><text x="340" y="322" text-anchor="middle" font-size="12" fill="#6b7280">E4</text><text x="420" y="322" text-anchor="middle" font-size="12" fill="#6b7280">E5</text><text x="500" y="322" text-anchor="middle" font-size="12" fill="#6b7280">E6</text><text x="580" y="322" text-anchor="middle" font-size="12" fill="#6b7280">E7</text><text x="660" y="322" text-anchor="middle" font-size="12" fill="#6b7280">E8</text><text x="740" y="322" text-anchor="middle" font-size="12" fill="#6b7280">E9</text><text x="820" y="322" text-anchor="middle" font-size="12" fill="#6b7280">E10</text><polyline fill="none" stroke="#2563eb" stroke-width="3" points="100,260 180,241 260,222 340,203 420,184 500,165 580,143 660,124 740,105 820,86"/><polyline fill="none" stroke="#7c3aed" stroke-width="3" points="100,270 180,255 260,240 340,225 420,215 500,195 580,180 660,170 740,150 820,135"/><circle cx="100" cy="260" r="4" fill="#2563eb"/><circle cx="180" cy="241" r="4" fill="#2563eb"/><circle cx="260" cy="222" r="4" fill="#2563eb"/><circle cx="340" cy="203" r="4" fill="#2563eb"/><circle cx="420" cy="184" r="4" fill="#2563eb"/><circle cx="500" cy="165" r="4" fill="#2563eb"/><circle cx="580" cy="143" r="4" fill="#2563eb"/><circle cx="660" cy="124" r="4" fill="#2563eb"/><circle cx="740" cy="105" r="4" fill="#2563eb"/><circle cx="820" cy="86" r="4" fill="#2563eb"/><circle cx="100" cy="270" r="4" fill="#7c3aed"/><circle cx="180" cy="255" r="4" fill="#7c3aed"/><circle cx="260" cy="240" r="4" fill="#7c3aed"/><circle cx="340" cy="225" r="4" fill="#7c3aed"/><circle cx="420" cy="215" r="4" fill="#7c3aed"/><circle cx="500" cy="195" r="4" fill="#7c3aed"/><circle cx="580" cy="180" r="4" fill="#7c3aed"/><circle cx="660" cy="170" r="4" fill="#7c3aed"/><circle cx="740" cy="150" r="4" fill="#7c3aed"/><circle cx="820" cy="135" r="4" fill="#7c3aed"/><rect x="640" y="70" width="14" height="14" fill="#2563eb" rx="3"/><text x="662" y="82" font-size="13" fill="#111827">Train</text><rect x="740" y="70" width="14" height="14" fill="#7c3aed" rx="3"/><text x="762" y="82" font-size="13" fill="#111827">Val</text></svg>