<svg xmlns="http://www.w3.org/2000/svg" width="980" height="360" viewBox="0 0 980 360"><rect width="100%" height="100%" fill="#ffffff"/><text x="490" y="32" text-anchor="middle" font-size="22" font-weight="700" fill="#111827">训练与验证损失曲线</text><line x1="90" y1="60.0" x2="900" y2="60.0" stroke="#eef2f7"/><line x1="90" y1="108.0" x2="900" y2="108.0" stroke="#eef2f7"/><line x1="90" y1="156.0" x2="900" y2="156.0" stroke="#eef2f7"/><line x1="90" y1="204.0" x2="900" y2="204.0" stroke="#eef2f7"/><line x1="90" y1="252.0" x2="900" y2="252.0" stroke="#eef2f7"/><line x1="90" y1="300.0" x2="900" y2="300.0" stroke="#eef2f7"/><text x="78" y="64.0" text-anchor="end" font-size="12" fill="#6b7280">1.3</text><text x="78" y="112.0" text-anchor="end" font-size="12" fill="#6b7280">1.1</text><text x="78" y="160.0" text-anchor="end" font-size="12" fill="#6b7280">0.9</text><text x="78" y="208.0" text-anchor="end" font-size="12" fill="#6b7280">0.7</text><text x="78" y="256.0" text-anchor="end" font-size="12" fill="#6b7280">0.5</text><text x="78" y="304.0" text-anchor="end" font-size="12" fill="#6b7280">0.3</text><text x="100.0" y="322" text-anchor="middle" font-size="12" fill="#6b7280">E1</text><text x="187.77777777777777" y="322" text-anchor="middle" font-size="12" fill="#6b7280">E2</text><text x="275.55555555555554" y="322" text-anchor="middle" font-size="12" fill="#6b7280">E3</text><text x="363.3333333333333" y="322" text-anchor="middle" font-size="12" fill="#6b7280">E4</text><text x="451.1111111111111" y="322" text-anchor="middle" font-size="12" fill="#6b7280">E5</text><text x="538.8888888888889" y="322" text-anchor="middle" font-size="12" fill="#6b7280">E6</text><text x="626.6666666666666" y="322" text-anchor="middle" font-size="12" fill="#6b7280">E7</text><text x="714.4444444444445" y="322" text-anchor="middle" font-size="12" fill="#6b7280">E8</text><text x="802.2222222222222" y="322" text-anchor="middle" font-size="12" fill="#6b7280">E9</text><text x="890.0" y="322" text-anchor="middle" font-size="12" fill="#6b7280">E10</text><line x1="90" y1="300" x2="900" y2="300" stroke="#94a3b8"/><line x1="90" y1="60" x2="90" y2="300" stroke="#94a3b8"/><polyline fill="none" stroke="#0ea5e9" stroke-width="3" points="100.0,88.80000000000001 187.77777777777777,132.0 275.55555555555554,165.6 363.3333333333333,196.8 451.1111111111111,218.39999999999998 538.8888888888889,235.2 626.6666666666666,252.0 714.4444444444445,264.0 802.2222222222222,276.0 890.0,283.2"/><circle cx="100.0" cy="88.80000000000001" r="4" fill="#0ea5e9"/><circle cx="187.77777777777777" cy="132.0" r="4" fill="#0ea5e9"/><circle cx="275.55555555555554" cy="165.6" r="4" fill="#0ea5e9"/><circle cx="363.3333333333333" cy="196.8" r="4" fill="#0ea5e9"/><circle cx="451.1111111111111" cy="218.39999999999998" r="4" fill="#0ea5e9"/><circle cx="538.8888888888889" cy="235.2" r="4" fill="#0ea5e9"/><circle cx="626.6666666666666" cy="252.0" r="4" fill="#0ea5e9"/><circle cx="714.4444444444445" cy="264.0" r="4" fill="#0ea5e9"/><circle cx="802.2222222222222" cy="276.0" r="4" fill="#0ea5e9"/><circle cx="890.0" cy="283.2" r="4" fill="#0ea5e9"/><polyline fill="none" stroke="#2563eb" stroke-width="3" points="100.0,74.4 187.77777777777777,112.79999999999998 275.55555555555554,144.00000000000003 363.3333333333333,170.39999999999998 451.1111111111111,189.6 538.8888888888889,206.4 626.6666666666666,220.8 714.4444444444445,232.8 802.2222222222222,240.0 890.0,244.79999999999998"/><circle cx="100.0" cy="74.4" r="4" fill="#2563eb"/><circle cx="187.77777777777777" cy="112.79999999999998" r="4" fill="#2563eb"/><circle cx="275.55555555555554" cy="144.00000000000003" r="4" fill="#2563eb"/><circle cx="363.3333333333333" cy="170.39999999999998" r="4" fill="#2563eb"/><circle cx="451.1111111111111" cy="189.6" r="4" fill="#2563eb"/><circle cx="538.8888888888889" cy="206.4" r="4" fill="#2563eb"/><circle cx="626.6666666666666" cy="220.8" r="4" fill="#2563eb"/><circle cx="714.4444444444445" cy="232.8" r="4" fill="#2563eb"/><circle cx="802.2222222222222" cy="240.0" r="4" fill="#2563eb"/><circle cx="890.0" cy="244.79999999999998" r="4" fill="#2563eb"/><rect x="625" y="70" width="14" height="14" fill="#0ea5e9" rx="3"/><text x="647" y="82" font-size="13" fill="#111827">Grounding Loss</text><rect x="790" y="70" width="14" height="14" fill="#2563eb" rx="3"/><text x="812" y="82" font-size="13" fill="#111827">Calibration Loss</text></svg>