<svg xmlns="http://www.w3.org/2000/svg" width="980" height="440" viewBox="0 0 980 440"><rect width="100%" height="100%" fill="#ffffff"/><text x="490" y="34" text-anchor="middle" font-size="22" font-weight="700" fill="#111827">主实验关键指标对比</text><text x="490" y="58" text-anchor="middle" font-size="12" fill="#6b7280">分组条形图展示通路落地、图表—结论对齐、因果措辞校准与归档就绪率</text><line x1="155.0" y1="88" x2="155.0" y2="360" stroke="#eef2f7"/><text x="155.0" y="382" text-anchor="middle" font-size="12" fill="#6b7280">0</text><line x1="304.0" y1="88" x2="304.0" y2="360" stroke="#eef2f7"/><text x="304.0" y="382" text-anchor="middle" font-size="12" fill="#6b7280">20</text><line x1="453.0" y1="88" x2="453.0" y2="360" stroke="#eef2f7"/><text x="453.0" y="382" text-anchor="middle" font-size="12" fill="#6b7280">40</text><line x1="602.0" y1="88" x2="602.0" y2="360" stroke="#eef2f7"/><text x="602.0" y="382" text-anchor="middle" font-size="12" fill="#6b7280">60</text><line x1="751.0" y1="88" x2="751.0" y2="360" stroke="#eef2f7"/><text x="751.0" y="382" text-anchor="middle" font-size="12" fill="#6b7280">80</text><line x1="900.0" y1="88" x2="900.0" y2="360" stroke="#eef2f7"/><text x="900.0" y="382" text-anchor="middle" font-size="12" fill="#6b7280">100</text><line x1="155" y1="360" x2="900" y2="360" stroke="#cbd5e1" stroke-width="1.5"/><text x="143" y="103" text-anchor="end" font-size="14" font-weight="600" fill="#111827">Generic LLM</text><rect x="155" y="88" width="550.5550000000001" height="8" rx="4" fill="#cbd5e1"/><rect x="155" y="98" width="569.1800000000001" height="8" rx="4" fill="#7dd3fc"/><rect x="155" y="108" width="520.01" height="8" rx="4" fill="#38bdf8"/><rect x="155" y="118" width="524.48" height="8" rx="4" fill="#2563eb"/><text x="896" y="104" text-anchor="end" font-size="12" fill="#475569">PGS 73.9 ｜ CFA 76.4 ｜ CCR 69.8 ｜ ARR 70.4</text><text x="143" y="155" text-anchor="end" font-size="14" font-weight="600" fill="#111827">OmicsTemplate</text><rect x="155" y="140" width="589.295" height="8" rx="4" fill="#cbd5e1"/><rect x="155" y="150" width="598.235" height="8" rx="4" fill="#7dd3fc"/><rect x="155" y="160" width="555.025" height="8" rx="4" fill="#38bdf8"/><rect x="155" y="170" width="564.71" height="8" rx="4" fill="#2563eb"/><text x="896" y="156" text-anchor="end" font-size="12" fill="#475569">PGS 79.1 ｜ CFA 80.3 ｜ CCR 74.5 ｜ ARR 75.8</text><text x="143" y="207" text-anchor="end" font-size="14" font-weight="600" fill="#111827">FigureNarrator</text><rect x="155" y="192" width="607.175" height="8" rx="4" fill="#cbd5e1"/><rect x="155" y="202" width="649.64" height="8" rx="4" fill="#7dd3fc"/><rect x="155" y="212" width="540.8699999999999" height="8" rx="4" fill="#38bdf8"/><rect x="155" y="222" width="581.8449999999999" height="8" rx="4" fill="#2563eb"/><text x="896" y="208" text-anchor="end" font-size="12" fill="#475569">PGS 81.5 ｜ CFA 87.2 ｜ CCR 72.6 ｜ ARR 78.1</text><text x="143" y="259" text-anchor="end" font-size="14" font-weight="600" fill="#111827">ClaimGuard</text><rect x="155" y="244" width="646.66" height="8" rx="4" fill="#cbd5e1"/><rect x="155" y="254" width="659.325" height="8" rx="4" fill="#7dd3fc"/><rect x="155" y="264" width="657.09" height="8" rx="4" fill="#38bdf8"/><rect x="155" y="274" width="632.5050000000001" height="8" rx="4" fill="#2563eb"/><text x="896" y="260" text-anchor="end" font-size="12" fill="#475569">PGS 86.8 ｜ CFA 88.5 ｜ CCR 88.2 ｜ ARR 84.9</text><text x="143" y="311" text-anchor="end" font-size="14" font-weight="600" fill="#111827">PathwayPatch</text><rect x="155" y="296" width="683.165" height="8" rx="4" fill="#cbd5e1"/><rect x="155" y="306" width="695.83" height="8" rx="4" fill="#7dd3fc"/><rect x="155" y="316" width="681.675" height="8" rx="4" fill="#38bdf8"/><rect x="155" y="326" width="667.52" height="8" rx="4" fill="#2563eb"/><text x="896" y="312" text-anchor="end" font-size="12" fill="#475569">PGS 91.7 ｜ CFA 93.4 ｜ CCR 91.5 ｜ ARR 89.6</text><rect x="250" y="402" width="16" height="10" rx="3" fill="#cbd5e1"/><text x="274" y="411" font-size="12" fill="#111827">PGS</text><rect x="380" y="402" width="16" height="10" rx="3" fill="#7dd3fc"/><text x="404" y="411" font-size="12" fill="#111827">CFA</text><rect x="510" y="402" width="16" height="10" rx="3" fill="#38bdf8"/><text x="534" y="411" font-size="12" fill="#111827">CCR</text><rect x="640" y="402" width="16" height="10" rx="3" fill="#2563eb"/><text x="664" y="411" font-size="12" fill="#111827">ARR</text></svg>