<svg xmlns="http://www.w3.org/2000/svg" width="980" height="420" viewBox="0 0 980 420"><rect width="100%" height="100%" fill="#ffffff"/><text x="490.0" y="34" text-anchor="middle" font-size="22" font-weight="700" fill="#111827">主实验关键指标对比</text><text x="490.0" y="58" text-anchor="middle" font-size="12" fill="#6b7280">横向条长表示第一指标；右侧文本给出全部指标</text><line x1="140" y1="360" x2="900" y2="360" stroke="#cbd5e1" stroke-width="1.5"/><line x1="140.0" y1="68" x2="140.0" y2="360" stroke="#eef2f7"/><text x="140.0" y="380" text-anchor="middle" font-size="12" fill="#6b7280">0</text><line x1="292.0" y1="68" x2="292.0" y2="360" stroke="#eef2f7"/><text x="292.0" y="380" text-anchor="middle" font-size="12" fill="#6b7280">20</text><line x1="444.0" y1="68" x2="444.0" y2="360" stroke="#eef2f7"/><text x="444.0" y="380" text-anchor="middle" font-size="12" fill="#6b7280">40</text><line x1="596.0" y1="68" x2="596.0" y2="360" stroke="#eef2f7"/><text x="596.0" y="380" text-anchor="middle" font-size="12" fill="#6b7280">60</text><line x1="748.0" y1="68" x2="748.0" y2="360" stroke="#eef2f7"/><text x="748.0" y="380" text-anchor="middle" font-size="12" fill="#6b7280">80</text><line x1="900.0" y1="68" x2="900.0" y2="360" stroke="#eef2f7"/><text x="900.0" y="380" text-anchor="middle" font-size="12" fill="#6b7280">100</text><text x="130" y="92" text-anchor="end" font-size="14" font-weight="600" fill="#111827">Generic LLM</text><rect x="140" y="74" width="568.5" height="18" rx="9" fill="#cbd5e1"/><text x="716.5" y="88" font-size="13" fill="#111827">74.8</text><text x="140" y="112" font-size="12" fill="#475569">M2 78.5 | M3 82.1 | M4 71.4 | M5 14.7</text><text x="130" y="144" text-anchor="end" font-size="14" font-weight="600" fill="#111827">Figure-Only Planner</text><rect x="140" y="126" width="586.7" height="18" rx="9" fill="#bfdbfe"/><text x="734.7" y="140" font-size="13" fill="#111827">77.2</text><text x="140" y="164" font-size="12" fill="#475569">M2 84.3 | M3 79.6 | M4 73.0 | M5 12.8</text><text x="130" y="196" text-anchor="end" font-size="14" font-weight="600" fill="#111827">BioTemplate Writer</text><rect x="140" y="178" width="620.2" height="18" rx="9" fill="#93c5fd"/><text x="768.2" y="192" font-size="13" fill="#111827">81.6</text><text x="140" y="216" font-size="12" fill="#475569">M2 85.0 | M3 86.8 | M4 79.4 | M5 10.2</text><text x="130" y="248" text-anchor="end" font-size="14" font-weight="600" fill="#111827">MechanismGuard</text><rect x="140" y="230" width="656.6" height="18" rx="9" fill="#60a5fa"/><text x="804.6" y="244" font-size="13" fill="#111827">86.4</text><text x="140" y="268" font-size="12" fill="#475569">M2 87.9 | M3 89.1 | M4 84.5 | M5 7.4</text><text x="130" y="300" text-anchor="end" font-size="14" font-weight="600" fill="#111827">PathwayPatch</text><rect x="140" y="282" width="688.6" height="18" rx="9" fill="#2563eb"/><text x="836.6" y="296" font-size="13" fill="#111827">90.6</text><text x="140" y="320" font-size="12" fill="#475569">M2 92.8 | M3 93.3 | M4 88.7 | M5 6.1</text></svg>